<svg width="454" height="163" viewBox="0 0 454 163" fill="none" xmlns="http://www.w3.org/2000/svg">
<rect y="33.937" width="134.9" height="133" transform="rotate(-14.5706 0 33.937)" fill="#BE123C"/>
<path d="M22.2 135V126.9L25.5 126.6C27.4333 126.4 28.4 125.467 28.4 123.8V77.3L22.7 77V68.5H50C57.7333 68.5 63.6667 69.9333 67.8 72.8C71.9333 75.6667 74 80.3667 74 86.9C74 91.4333 72.8 95.1667 70.4 98.1C68.0667 101.033 65.2667 103.167 62 104.5C64.4 105.367 66.3 107.4 67.7 110.6L74.9 126.3L80.6 126.5V135H55.9V126.9L58.8 126.6C60.3333 126.4 61.1 125.8 61.1 124.8C61.1 124.4 60.9667 123.933 60.7 123.4L56 113.4C55.2667 111.733 54.4333 110.567 53.5 109.9C52.6333 109.167 51.3667 108.8 49.7 108.8H40.6V126.2L47.1 126.5V135H22.2ZM40.6 99.3H49.3C57.5 99.3 61.6 95.6333 61.6 88.3C61.6 84.1 60.5 81.3667 58.3 80.1C56.1667 78.8333 52.7 78.2 47.9 78.2H40.6V99.3ZM88.3977 123.8L104.498 77.2L98.1977 76.6V68.5H121.098L141.498 126.2H141.598L147.298 126.5V135H121.498V126.9L125.298 126.6C126.431 126.467 127.198 126.2 127.598 125.8C127.998 125.4 128.031 124.667 127.698 123.6L125.598 117.4H102.198L99.1977 126.2L105.198 126.5V135H82.0977V126.9L85.3977 126.6C86.7977 126.467 87.7977 125.533 88.3977 123.8ZM113.898 79.7L104.598 108.2H123.198L114.198 79.7H113.898ZM151.009 135V126.9L154.609 126.6C156.342 126.467 157.209 125.533 157.209 123.8V77.3L151.509 77V68.5H169.509L197.809 114.4H198.009V77.3L191.409 77V68.5H215.809V76.6L212.209 76.9C210.609 77.0333 209.809 78.0667 209.809 80V135H198.109L169.209 88.4H169.009V126.2L175.509 126.5V135H151.009ZM251.84 67.3C259.773 67.3 266.407 70.1 271.74 75.7C277.073 81.3 279.74 89.8667 279.74 101.4C279.74 112.867 277.073 121.567 271.74 127.5C266.473 133.367 259.307 136.3 250.24 136.3C241.24 136.3 234.173 133.367 229.04 127.5C223.907 121.633 221.34 113.1 221.34 101.9C221.34 95.7667 222.24 90.4 224.04 85.8C225.84 81.1333 228.207 77.5333 231.14 75C237.073 69.8667 243.973 67.3 251.84 67.3ZM233.84 101.4C233.84 117.933 239.573 126.2 251.04 126.2C257.173 126.2 261.473 123.667 263.94 118.6C266.207 114.133 267.34 108.667 267.34 102.2C267.34 96.4 266.34 91.0667 264.34 86.2C263.207 83.5333 261.473 81.4333 259.14 79.9C256.873 78.3667 253.907 77.6 250.24 77.6C246.573 77.6 243.407 78.8 240.74 81.2C238.14 83.6 236.34 86.5 235.34 89.9C234.34 93.3 233.84 97.1333 233.84 101.4ZM299.354 80.4L312.754 120.7H313.254L327.254 77.4L321.154 77V68.5H344.154V76.6L340.854 76.9C339.987 76.9667 339.354 77.2333 338.954 77.7C338.554 78.1 338.154 78.8333 337.754 79.9L318.854 135H305.854L285.454 77.3L279.754 77V68.5H305.554V76.6L302.254 76.9C300.187 77.0333 299.154 77.8333 299.154 79.3C299.154 79.6333 299.221 80 299.354 80.4ZM395.584 135H348.084V126.9L351.384 126.6C353.317 126.4 354.284 125.467 354.284 123.8V77.3L348.584 77V68.5H394.384V85.1L384.184 85.8V81.8C384.184 80.6667 384.017 79.8667 383.684 79.4C383.35 78.9333 382.55 78.7 381.284 78.7H366.484V95.8H389.584V106H366.484V124.7H382.584C383.784 124.7 384.55 124.467 384.884 124C385.217 123.467 385.384 122.633 385.384 121.5V116.5L395.584 117.2V135ZM450.266 135H402.766V126.9L406.066 126.6C408 126.4 408.966 125.467 408.966 123.8V77.3L403.266 77V68.5H427.366V76.6L424.066 76.9C422.133 77.1 421.166 78.1667 421.166 80.1V124.7H437.766C438.7 124.7 439.3 124.467 439.566 124C439.9 123.467 440.066 122.633 440.066 121.5V114.5L450.266 115.2V135Z" fill="white"/>
<path d="M430 59.5C430 49.0385 427.056 38.7618 421.466 29.7063C415.875 20.6508 407.835 13.1365 398.157 7.92111C388.478 2.70571 377.503 -0.0264182 366.338 0.00019249C355.174 0.0268032 344.214 2.81122 334.564 8.07268L366.5 59.5H430Z" fill="#F87171"/>
</svg>
