<svg width="442" height="163" viewBox="0 0 442 163" fill="none" xmlns="http://www.w3.org/2000/svg">
<rect y="33.937" width="134.9" height="133" transform="rotate(-14.5706 0 33.937)" fill="#BE123C"/>
<path d="M22.2 135V126.9L25.5 126.6C27.4333 126.4 28.4 125.467 28.4 123.8V77.3L22.7 77V68.5H50C57.7333 68.5 63.6667 69.9333 67.8 72.8C71.9333 75.6667 74 80.3667 74 86.9C74 91.4333 72.8 95.1667 70.4 98.1C68.0667 101.033 65.2667 103.167 62 104.5C64.4 105.367 66.3 107.4 67.7 110.6L74.9 126.3L80.6 126.5V135H55.9V126.9L58.8 126.6C60.3333 126.4 61.1 125.8 61.1 124.8C61.1 124.4 60.9667 123.933 60.7 123.4L56 113.4C55.2667 111.733 54.4333 110.567 53.5 109.9C52.6333 109.167 51.3667 108.8 49.7 108.8H40.6V126.2L47.1 126.5V135H22.2ZM40.6 99.3H49.3C57.5 99.3 61.6 95.6333 61.6 88.3C61.6 84.1 60.5 81.3667 58.3 80.1C56.1667 78.8333 52.7 78.2 47.9 78.2H40.6V99.3ZM88.3977 123.8L104.498 77.2L98.1977 76.6V68.5H121.098L141.498 126.2H141.598L147.298 126.5V135H121.498V126.9L125.298 126.6C126.431 126.467 127.198 126.2 127.598 125.8C127.998 125.4 128.031 124.667 127.698 123.6L125.598 117.4H102.198L99.1977 126.2L105.198 126.5V135H82.0977V126.9L85.3977 126.6C86.7977 126.467 87.7977 125.533 88.3977 123.8ZM113.898 79.7L104.598 108.2H123.198L114.198 79.7H113.898ZM151.009 135V126.9L154.609 126.6C156.342 126.467 157.209 125.533 157.209 123.8V77.3L151.509 77V68.5H169.509L197.809 114.4H198.009V77.3L191.409 77V68.5H215.809V76.6L212.209 76.9C210.609 77.0333 209.809 78.0667 209.809 80V135H198.109L169.209 88.4H169.009V126.2L175.509 126.5V135H151.009ZM240.116 123.8V78.4H232.316C230.783 78.4 230.016 79.4333 230.016 81.5V86.2L219.816 85.5V68.5H272.116V85.5L261.916 86.2V81.5C261.916 80.3667 261.75 79.5667 261.416 79.1C261.083 78.6333 260.283 78.4 259.016 78.4H252.216V126.2L260.116 126.5V135H231.916V126.9L237.216 126.6C239.15 126.4 240.116 125.467 240.116 123.8ZM273.359 123.8L289.459 77.2L283.159 76.6V68.5H306.059L326.459 126.2H326.559L332.259 126.5V135H306.459V126.9L310.259 126.6C311.392 126.467 312.159 126.2 312.559 125.8C312.959 125.4 312.992 124.667 312.659 123.6L310.559 117.4H287.159L284.159 126.2L290.159 126.5V135H267.059V126.9L270.359 126.6C271.759 126.467 272.759 125.533 273.359 123.8ZM298.859 79.7L289.559 108.2H308.159L299.159 79.7H298.859ZM383.47 135H335.97V126.9L339.27 126.6C341.203 126.4 342.17 125.467 342.17 123.8V77.3L336.47 77V68.5H360.57V76.6L357.27 76.9C355.336 77.1 354.37 78.1667 354.37 80.1V124.7H370.97C371.903 124.7 372.503 124.467 372.77 124C373.103 123.467 373.27 122.633 373.27 121.5V114.5L383.47 115.2V135ZM437.38 135H389.88V126.9L393.18 126.6C395.114 126.4 396.08 125.467 396.08 123.8V77.3L390.38 77V68.5H436.18V85.1L425.98 85.8V81.8C425.98 80.6667 425.814 79.8667 425.48 79.4C425.147 78.9333 424.347 78.7 423.08 78.7H408.28V95.8H431.38V106H408.28V124.7H424.38C425.58 124.7 426.347 124.467 426.68 124C427.014 123.467 427.18 122.633 427.18 121.5V116.5L437.38 117.2V135Z" fill="white"/>
<path d="M430 59.5C430 49.0385 427.056 38.7618 421.466 29.7063C415.875 20.6508 407.835 13.1365 398.157 7.92111C388.478 2.70571 377.503 -0.0264182 366.338 0.00019249C355.174 0.0268032 344.214 2.81122 334.564 8.07268L366.5 59.5H430Z" fill="#F87171"/>
</svg>
